<svg width="32" height="32" fill="none" xmlns="http://www.w3.org/2000/svg"><path d="M20.7999 16.0001a4.8004 4.8004 0 01-1.4058 3.3942 4.8004 4.8004 0 01-6.7883 0 4.8005 4.8005 0 01-1.4059-3.3942c0-.2736.0288-.5408.0784-.8H9.5999v6.3952c0 .4448.36.8048.8048.8048h11.192a.8049.8049 0 00.8032-.8048v-6.3952h-1.6784c.0496.2592.0784.5264.0784.8zm-4.8 3.2a3.2017 3.2017 0 002.2631-.938 3.2005 3.2005 0 00-.0011-4.5266 3.2002 3.2002 0 00-4.5266.0011 3.2009 3.2009 0 002.2646 5.4635zm3.84-6.56h1.9184a.4813.4813 0 00.4816-.48v-1.9184a.4816.4816 0 00-.4816-.4816h-1.9184a.4815.4815 0 00-.4816.4816v1.9184c.0016.264.2176.48.4816.48zm-3.84-12a15.36 15.36 0 100 30.7199A15.36 15.36 0 0016 .64zm8 21.5824c0 .9776-.8 1.7776-1.7776 1.7776H9.7775C8.8 24.0001 8 23.2001 8 22.2225V9.7777c0-.9776.8-1.7776 1.7775-1.7776h12.4448c.9776 0 1.7776.8 1.7776 1.7776v12.4448z" fill="#fff"/></svg>